<svg width="44" height="44" viewBox="0 0 44 44" fill="none" xmlns="http://www.w3.org/2000/svg">
<rect width="44" height="44" rx="22" fill="#429EFF"/>
<g clip-path="url(#clip0_20166_62865)">
<path d="M27.25 28.7499H16.75C16.5511 28.7499 16.3603 28.6709 16.2197 28.5303C16.079 28.3896 16 28.1989 16 27.9999V21.2499H13.75L21.4952 14.2089C21.6333 14.0833 21.8133 14.0137 22 14.0137C22.1867 14.0137 22.3667 14.0833 22.5048 14.2089L30.25 21.2499H28V27.9999C28 28.1989 27.921 28.3896 27.7803 28.5303C27.6397 28.6709 27.4489 28.7499 27.25 28.7499ZM17.5 27.2499H26.5V19.8677L22 15.7772L17.5 19.8677V27.2499ZM19.4432 23.3567C19.3482 22.9568 19.3482 22.5401 19.4432 22.1402L18.7 21.7112L19.45 20.4122L20.1932 20.8419C20.4916 20.5592 20.8524 20.3506 21.2462 20.2329V19.3749H22.7462V20.2329C23.1452 20.3522 23.5038 20.5629 23.7993 20.8419L24.5425 20.4122L25.2925 21.7104L24.5493 22.1402C24.6443 22.5401 24.6443 22.9568 24.5493 23.3567L25.2925 23.7857L24.5425 25.0839L23.7993 24.6549C23.5008 24.9374 23.1401 25.1458 22.7462 25.2632V26.1219H21.2462V25.2624C20.8524 25.145 20.4917 24.9367 20.1932 24.6542L19.45 25.0832L18.7 23.7857L19.4432 23.3559V23.3567ZM21.9962 23.8727C22.1473 23.8782 22.298 23.8532 22.4392 23.7992C22.5804 23.7452 22.7093 23.6633 22.8182 23.5583C22.927 23.4534 23.0136 23.3276 23.0727 23.1884C23.1318 23.0493 23.1623 22.8996 23.1623 22.7484C23.1623 22.5972 23.1318 22.4476 23.0727 22.3085C23.0136 22.1693 22.927 22.0435 22.8182 21.9386C22.7093 21.8336 22.5804 21.7517 22.4392 21.6977C22.298 21.6437 22.1473 21.6187 21.9962 21.6242C21.7052 21.6348 21.4296 21.7579 21.2274 21.9676C21.0253 22.1773 20.9123 22.4572 20.9123 22.7484C20.9123 23.0397 21.0253 23.3196 21.2274 23.5293C21.4296 23.739 21.7052 23.8621 21.9962 23.8727V23.8727Z" fill="white"/>
</g>
<defs>
<clipPath id="clip0_20166_62865">
<rect width="18" height="18" fill="white" transform="translate(13 13)"/>
</clipPath>
</defs>
</svg>
