<svg width="44" height="44" viewBox="0 0 44 44" fill="none" xmlns="http://www.w3.org/2000/svg">
<rect width="44" height="44" rx="22" fill="#9F87FF"/>
<g clip-path="url(#clip0_20166_62871)">
<path d="M28.75 19V28.7448C28.7507 28.8432 28.732 28.9409 28.6949 29.0322C28.6579 29.1234 28.6032 29.2065 28.534 29.2766C28.4649 29.3468 28.3826 29.4026 28.2919 29.4409C28.2011 29.4792 28.1037 29.4993 28.0052 29.5H15.9948C15.7974 29.5 15.608 29.4216 15.4684 29.2821C15.3288 29.1426 15.2502 28.9534 15.25 28.756V15.244C15.25 14.8413 15.5867 14.5 16.0015 14.5H24.2477L28.75 19ZM27.25 19.75H23.5V16H16.75V28H27.25V19.75ZM19 18.25H21.25V19.75H19V18.25ZM19 21.25H25V22.75H19V21.25ZM19 24.25H25V25.75H19V24.25Z" fill="white"/>
</g>
<defs>
<clipPath id="clip0_20166_62871">
<rect width="18" height="18" fill="white" transform="translate(13 13)"/>
</clipPath>
</defs>
</svg>
