<svg width="60" height="60" viewBox="0 0 60 60" fill="none" xmlns="http://www.w3.org/2000/svg">
<rect width="60" height="60" rx="30" fill="#DFE1E7"/>
<rect x="15" y="15" width="30" height="30" rx="15" fill="#F5B300"/>
<path d="M24.7284 21.8969C25.2792 22.0471 25.8301 22.1473 26.381 22.2975C26.9318 22.4478 27.4827 22.5479 28.0336 22.6982C28.1838 22.7482 28.2339 22.6982 28.2839 22.5479C28.4843 21.6966 28.6846 20.8953 28.8849 20.044C28.935 19.8938 28.985 19.8437 29.1353 19.8938C29.6361 20.044 30.0868 20.1442 30.5875 20.2443C30.7378 20.2944 30.7378 20.3445 30.6877 20.4446C30.4874 21.2459 30.2871 22.0972 30.0868 22.8985C30.0868 22.9486 30.0868 22.9986 30.0367 23.0988C30.4373 23.1989 30.888 23.2991 31.2886 23.3993C31.3387 23.3993 31.3888 23.2991 31.4389 23.249C31.5891 22.598 31.7393 21.9971 31.9397 21.346C31.9897 21.1457 32.0398 20.9454 32.0899 20.7451C32.0899 20.645 32.14 20.5949 32.2401 20.645C32.7409 20.7952 33.2417 20.8953 33.7925 21.0456C33.8426 21.0456 33.8426 21.0957 33.8927 21.0957C33.7425 21.7467 33.5922 22.3476 33.442 22.9486C33.3919 23.1989 33.3418 23.4493 33.2417 23.6997C33.1916 23.85 33.2417 23.9 33.3919 23.9501C33.9428 24.2005 34.4936 24.4509 35.0445 24.7013C35.5453 25.0018 35.996 25.4024 36.3465 25.9032C36.7972 26.6543 36.8473 27.4556 36.647 28.2568C36.4968 28.8077 36.2965 29.3085 35.8958 29.7091C35.5954 30.0096 35.1947 30.2099 34.7941 30.3601C34.744 30.3601 34.694 30.4102 34.5938 30.4102C34.7941 30.5604 34.9944 30.6606 35.1947 30.8108C35.7957 31.2615 36.1963 31.8124 36.3966 32.5135C36.4968 33.0644 36.4467 33.6653 36.2965 34.2162C36.0961 34.9173 35.8458 35.5182 35.3951 36.0691C34.8442 36.7201 34.1431 37.0706 33.3418 37.1708C32.2902 37.321 31.2886 37.2209 30.2871 37.0706C30.1368 37.0205 30.0367 37.0706 29.9866 37.2209C29.7863 38.0221 29.586 38.8734 29.3857 39.6747C29.3356 39.875 29.3356 39.9251 29.0852 39.8249C28.6345 39.7248 28.1337 39.5745 27.683 39.4744C27.5328 39.4243 27.5328 39.3742 27.5828 39.2741C27.7832 38.4227 27.9835 37.5714 28.2339 36.7701C28.2339 36.67 28.2839 36.6199 28.1838 36.5698C27.7832 36.4697 27.3825 36.3695 26.9318 36.2694C26.8317 36.7201 26.6814 37.1708 26.5813 37.6215C26.4811 38.0722 26.3309 38.5229 26.2307 38.9736C26.1807 39.0737 26.1807 39.1238 26.0304 39.0737C25.5296 38.9235 25.0289 38.8234 24.5281 38.7232C24.3778 38.6731 24.3778 38.623 24.4279 38.5229C24.6282 37.6716 24.8285 36.8202 25.0789 36.019C25.0789 35.9689 25.129 35.9188 25.129 35.8187C23.9772 35.5182 22.8254 35.2177 21.6235 34.9173C21.7237 34.7169 21.7738 34.5667 21.8739 34.3664C22.0742 33.9157 22.2746 33.465 22.4248 33.0644C22.4749 32.9141 22.5249 32.9141 22.6752 32.9141C23.0257 33.0143 23.4264 33.1144 23.7769 33.1645C24.1775 33.2647 24.478 33.0644 24.5281 32.7138C25.1791 30.1598 25.8301 27.6058 26.431 25.0018C26.5312 24.6011 26.2808 24.1504 25.8301 24.0002C25.3794 23.85 24.9287 23.7498 24.5281 23.6496C24.4279 23.6496 24.3778 23.5996 24.4279 23.4994C24.5782 22.9486 24.7284 22.3476 24.8786 21.7968C24.6783 21.947 24.6783 21.947 24.7284 21.8969ZM27.2824 34.2662C27.3325 34.2662 27.3825 34.3163 27.3825 34.3163C28.1838 34.5166 29.0351 34.767 29.8864 34.8171C30.4874 34.8672 31.0382 34.8672 31.5891 34.6669C32.5406 34.3664 32.9412 33.1144 32.3904 32.3132C32.14 31.9126 31.7393 31.6622 31.3387 31.4118C30.4373 30.911 29.3857 30.7107 28.3841 30.5104C28.2339 30.4603 28.2339 30.5104 28.1838 30.6606C28.0836 31.1614 27.9334 31.6121 27.8332 32.1129C27.6329 32.814 27.4827 33.5151 27.2824 34.2662ZM31.4889 29.1583C31.5891 29.1583 31.8395 29.1082 32.0398 29.0581C32.9913 28.8578 33.4921 27.7561 32.9913 26.9047C32.7409 26.454 32.2902 26.1536 31.8395 25.9532C31.1384 25.6528 30.4373 25.5025 29.6861 25.3022C29.5359 25.2522 29.4858 25.3022 29.4357 25.4525C29.1854 26.5041 28.935 27.5057 28.6345 28.5573C28.5844 28.6575 28.6345 28.7076 28.7346 28.7576C28.935 28.8077 29.0852 28.8578 29.2855 28.9079C30.0367 29.008 30.6877 29.1583 31.4889 29.1583Z" fill="white"/>
</svg>
