<svg width="24" height="25" viewBox="0 0 24 25" fill="none" xmlns="http://www.w3.org/2000/svg">
<path d="M12 22.5C6.477 22.5 2 18.023 2 12.5C2 6.977 6.477 2.5 12 2.5C17.523 2.5 22 6.977 22 12.5C22 18.023 17.523 22.5 12 22.5ZM12 20.5C14.1217 20.5 16.1566 19.6571 17.6569 18.1569C19.1571 16.6566 20 14.6217 20 12.5C20 10.3783 19.1571 8.34344 17.6569 6.84315C16.1566 5.34285 14.1217 4.5 12 4.5C9.87827 4.5 7.84344 5.34285 6.34315 6.84315C4.84285 8.34344 4 10.3783 4 12.5C4 14.6217 4.84285 16.6566 6.34315 18.1569C7.84344 19.6571 9.87827 20.5 12 20.5V20.5ZM8.5 14.5H14C14.1326 14.5 14.2598 14.4473 14.3536 14.3536C14.4473 14.2598 14.5 14.1326 14.5 14C14.5 13.8674 14.4473 13.7402 14.3536 13.6464C14.2598 13.5527 14.1326 13.5 14 13.5H10C9.33696 13.5 8.70107 13.2366 8.23223 12.7678C7.76339 12.2989 7.5 11.663 7.5 11C7.5 10.337 7.76339 9.70107 8.23223 9.23223C8.70107 8.76339 9.33696 8.5 10 8.5H11V6.5H13V8.5H15.5V10.5H10C9.86739 10.5 9.74021 10.5527 9.64645 10.6464C9.55268 10.7402 9.5 10.8674 9.5 11C9.5 11.1326 9.55268 11.2598 9.64645 11.3536C9.74021 11.4473 9.86739 11.5 10 11.5H14C14.663 11.5 15.2989 11.7634 15.7678 12.2322C16.2366 12.7011 16.5 13.337 16.5 14C16.5 14.663 16.2366 15.2989 15.7678 15.7678C15.2989 16.2366 14.663 16.5 14 16.5H13V18.5H11V16.5H8.5V14.5Z" fill="black"/>
</svg>
