<svg width="60" height="60" viewBox="0 0 60 60" fill="none" xmlns="http://www.w3.org/2000/svg">
<rect width="60" height="60" rx="30" fill="#DFE1E7"/>
<rect x="15" y="15" width="30" height="30" rx="15" fill="#0033AD"/>
<path d="M25.3508 30.0409C25.3289 30.4221 25.4593 30.7965 25.7132 31.0816C25.9671 31.3668 26.3239 31.5395 26.7051 31.5618H26.7836C27.0644 31.5614 27.3389 31.4789 27.5733 31.3244C27.8077 31.1699 27.9917 30.9501 28.1026 30.6922C28.2136 30.4343 28.2466 30.1496 28.1975 29.8732C28.1485 29.5968 28.0196 29.3407 27.8268 29.1367C27.6339 28.9327 27.3856 28.7896 27.1123 28.7251C26.8391 28.6606 26.553 28.6775 26.2892 28.7738C26.0255 28.87 25.7957 29.0414 25.6283 29.2667C25.4608 29.492 25.363 29.7614 25.3469 30.0417L25.3508 30.0409Z" fill="white"/>
<path d="M19.9902 29.6764C19.8986 29.6713 19.8074 29.6935 19.7284 29.7401C19.6493 29.7867 19.5859 29.8558 19.546 29.9385C19.5062 30.0211 19.4917 30.1138 19.5045 30.2047C19.5173 30.2956 19.5568 30.3806 19.6179 30.4491C19.679 30.5176 19.7591 30.5664 19.848 30.5894C19.9368 30.6124 20.0305 30.6086 20.1172 30.5783C20.2038 30.5481 20.2796 30.4928 20.3349 30.4196C20.3902 30.3463 20.4225 30.2583 20.4278 30.1666C20.4314 30.1057 20.4229 30.0446 20.4028 29.9869C20.3828 29.9293 20.3515 29.8761 20.3109 29.8306C20.2702 29.785 20.2209 29.748 20.1659 29.7215C20.1109 29.6951 20.0512 29.6797 19.9902 29.6764Z" fill="white"/>
<path d="M25.2597 21.6976C25.3413 21.6557 25.4087 21.5906 25.4534 21.5104C25.4981 21.4303 25.5181 21.3387 25.5108 21.2472C25.5036 21.1558 25.4695 21.0685 25.4127 20.9964C25.356 20.9242 25.2792 20.8705 25.192 20.842C25.1048 20.8134 25.0111 20.8113 24.9227 20.8359C24.8343 20.8604 24.7551 20.9106 24.6952 20.9801C24.6352 21.0496 24.5972 21.1352 24.5858 21.2263C24.5744 21.3173 24.5902 21.4097 24.6312 21.4918C24.6588 21.5467 24.697 21.5957 24.7436 21.6358C24.7901 21.6759 24.8442 21.7064 24.9026 21.7255C24.961 21.7447 25.0226 21.7521 25.0839 21.7473C25.1452 21.7425 25.2049 21.7256 25.2597 21.6976Z" fill="white"/>
<path d="M26.7184 24.2412C26.8452 24.1773 26.9502 24.0772 27.0201 23.9536C27.09 23.83 27.1216 23.6884 27.1111 23.5469C27.1005 23.4053 27.0483 23.27 26.9608 23.1581C26.8734 23.0462 26.7548 22.9628 26.62 22.9183C26.4851 22.8738 26.3401 22.8703 26.2033 22.9083C26.0665 22.9462 25.944 23.0238 25.8513 23.1314C25.7585 23.2389 25.6998 23.3715 25.6825 23.5124C25.6651 23.6533 25.6899 23.7962 25.7538 23.9231C25.7962 24.0073 25.8548 24.0824 25.9263 24.144C25.9977 24.2056 26.0806 24.2525 26.1702 24.282C26.2598 24.3116 26.3543 24.3232 26.4484 24.3162C26.5424 24.3092 26.6342 24.2837 26.7184 24.2412Z" fill="white"/>
<path d="M21.8095 25.9906C21.9073 26.0549 22.022 26.0888 22.139 26.0879C22.256 26.087 22.3702 26.0515 22.467 25.9857C22.5638 25.9199 22.6389 25.8269 22.6828 25.7185C22.7267 25.61 22.7375 25.4909 22.7138 25.3763C22.69 25.2617 22.6328 25.1568 22.5494 25.0747C22.4659 24.9926 22.36 24.9372 22.2451 24.9153C22.1301 24.8934 22.0112 24.9062 21.9035 24.9519C21.7958 24.9976 21.704 25.0742 21.6399 25.1721C21.5539 25.3032 21.5235 25.463 21.5553 25.6165C21.5872 25.7699 21.6786 25.9045 21.8095 25.9906Z" fill="white"/>
<path d="M22.6839 29.4148C22.5421 29.4068 22.4012 29.4411 22.2789 29.5131C22.1565 29.5852 22.0583 29.6919 21.9967 29.8198C21.935 29.9477 21.9126 30.091 21.9324 30.2316C21.9521 30.3722 22.0131 30.5038 22.1077 30.6097C22.2022 30.7156 22.326 30.7912 22.4634 30.8268C22.6009 30.8624 22.7458 30.8564 22.8798 30.8097C23.0139 30.7629 23.1311 30.6775 23.2166 30.5641C23.3021 30.4508 23.3521 30.3146 23.3602 30.1729C23.3709 29.9827 23.3057 29.796 23.1789 29.6539C23.0521 29.5118 22.874 29.4258 22.6839 29.4148Z" fill="white"/>
<path d="M21.8881 34.2421C21.7837 34.2948 21.6973 34.3773 21.6398 34.4792C21.5823 34.5811 21.5563 34.6977 21.565 34.8143C21.5738 34.931 21.617 35.0424 21.6891 35.1345C21.7611 35.2266 21.8589 35.2953 21.97 35.3319C22.0811 35.3684 22.2006 35.3712 22.3133 35.3399C22.426 35.3086 22.5269 35.2446 22.6032 35.1559C22.6795 35.0673 22.7278 34.958 22.742 34.8419C22.7563 34.7258 22.7357 34.6081 22.6831 34.5036C22.6481 34.4342 22.5997 34.3724 22.5408 34.3217C22.4819 34.271 22.4136 34.2324 22.3398 34.2081C22.266 34.1838 22.1881 34.1743 22.1106 34.1801C22.0331 34.186 21.9575 34.207 21.8881 34.2421Z" fill="white"/>
<path d="M24.6792 27.9309C24.819 28.0226 24.9828 28.0707 25.15 28.0692C25.3171 28.0677 25.4801 28.0167 25.6183 27.9226C25.7564 27.8285 25.8636 27.6955 25.9262 27.5405C25.9888 27.3856 26.004 27.2155 25.97 27.0518C25.9359 26.8881 25.8541 26.7383 25.7349 26.6211C25.6157 26.5039 25.4644 26.4247 25.3001 26.3936C25.1359 26.3624 24.9661 26.3806 24.8122 26.4459C24.6584 26.5112 24.5273 26.6207 24.4356 26.7605C24.3747 26.8533 24.3326 26.9572 24.3118 27.0663C24.291 27.1754 24.292 27.2875 24.3146 27.3962C24.3372 27.5049 24.3811 27.6081 24.4436 27.6999C24.5062 27.7916 24.5862 27.8702 24.6792 27.9309Z" fill="white"/>
<path d="M33.5339 24.1847C33.6529 24.2623 33.7923 24.3029 33.9344 24.3014C34.0766 24.2998 34.215 24.2561 34.3324 24.1759C34.4497 24.0957 34.5406 23.9825 34.5935 23.8506C34.6465 23.7187 34.6592 23.574 34.63 23.4349C34.6008 23.2958 34.531 23.1685 34.4295 23.0691C34.3279 22.9696 34.1992 22.9025 34.0595 22.8762C33.9198 22.85 33.7755 22.8657 33.6447 22.9214C33.514 22.9771 33.4027 23.0704 33.3249 23.1894C33.2731 23.2684 33.2375 23.3569 33.2199 23.4497C33.2024 23.5425 33.2034 23.6379 33.2228 23.7304C33.2422 23.8228 33.2797 23.9106 33.3331 23.9885C33.3865 24.0665 33.4547 24.1331 33.5339 24.1847Z" fill="white"/>
<path d="M35.0076 21.6489C35.0845 21.6993 35.1747 21.7258 35.2667 21.725C35.3587 21.7242 35.4484 21.6961 35.5244 21.6442C35.6004 21.5924 35.6594 21.5192 35.6938 21.4339C35.7282 21.3486 35.7365 21.255 35.7177 21.1649C35.6989 21.0748 35.6538 20.9924 35.5882 20.928C35.5225 20.8635 35.4392 20.82 35.3488 20.803C35.2584 20.7859 35.1649 20.7961 35.0803 20.8321C34.9956 20.8682 34.9236 20.9285 34.8732 21.0055C34.8058 21.1087 34.7821 21.2344 34.8073 21.355C34.8325 21.4756 34.9045 21.5813 35.0076 21.6489Z" fill="white"/>
<path d="M33.647 28.6725C33.4585 28.6617 33.2697 28.6881 33.0913 28.7502C32.913 28.8124 32.7487 28.909 32.6077 29.0347C32.323 29.2884 32.1508 29.6449 32.1289 30.0256C32.107 30.4064 32.2373 30.7802 32.4911 31.0649C32.7448 31.3496 33.1013 31.5218 33.482 31.5437C33.5095 31.5437 33.5378 31.5437 33.5653 31.5437C33.8427 31.5436 34.1141 31.4632 34.3468 31.3123C34.5795 31.1614 34.7636 30.9464 34.8768 30.6932C34.9901 30.44 35.0277 30.1594 34.9851 29.8854C34.9425 29.6113 34.8215 29.3554 34.6368 29.1485C34.5117 29.0075 34.3597 28.8927 34.1898 28.811C34.0198 28.7292 33.8353 28.6822 33.647 28.6725Z" fill="white"/>
<path d="M27.1906 27.8312C27.3099 28.0696 27.4934 28.27 27.7205 28.4097C27.9475 28.5495 28.2091 28.6231 28.4757 28.6222C28.7215 28.6223 28.9633 28.5593 29.1778 28.4394C29.3924 28.3195 29.5726 28.1466 29.7014 27.9371C29.8301 27.7277 29.903 27.4888 29.9132 27.2432C29.9233 26.9976 29.8703 26.7535 29.7593 26.5342C29.6391 26.2969 29.4553 26.0977 29.2283 25.959C29.0013 25.8202 28.7402 25.7474 28.4741 25.7487C28.2291 25.7491 27.9882 25.8121 27.7744 25.9318C27.5605 26.0514 27.3807 26.2237 27.2522 26.4323C27.1236 26.6409 27.0504 26.8789 27.0396 27.1237C27.0289 27.3686 27.0808 27.6121 27.1906 27.8312Z" fill="white"/>
<path d="M38.4632 25.9891C38.5676 25.9364 38.6541 25.8539 38.7116 25.7521C38.7692 25.6503 38.7953 25.5337 38.7866 25.4171C38.7779 25.3004 38.7349 25.189 38.6629 25.0968C38.5909 25.0047 38.4932 24.9359 38.3821 24.8993C38.271 24.8626 38.1516 24.8597 38.0389 24.8909C37.9262 24.9221 37.8252 24.986 37.7488 25.0746C37.6724 25.1631 37.624 25.2723 37.6097 25.3884C37.5953 25.5045 37.6157 25.6222 37.6682 25.7267C37.7389 25.8668 37.8624 25.9732 38.0114 26.0224C38.1605 26.0716 38.323 26.0596 38.4632 25.9891Z" fill="white"/>
<path d="M34.8175 26.447C34.6682 26.5222 34.5445 26.64 34.4621 26.7855C34.3798 26.931 34.3424 27.0976 34.3547 27.2643C34.3671 27.431 34.4286 27.5904 34.5314 27.7221C34.6343 27.8539 34.774 27.9522 34.9327 28.0046C35.0915 28.057 35.2622 28.0612 35.4233 28.0165C35.5844 27.9719 35.7287 27.8805 35.8378 27.7539C35.947 27.6273 36.0162 27.4711 36.0366 27.3052C36.057 27.1393 36.0278 26.9711 35.9526 26.8217C35.9027 26.7225 35.8338 26.6341 35.7498 26.5616C35.6657 26.489 35.5682 26.4338 35.4627 26.399C35.3573 26.3642 35.246 26.3505 35.1353 26.3588C35.0246 26.367 34.9166 26.397 34.8175 26.447Z" fill="white"/>
<path d="M30.1214 21.4321C30.2383 21.4387 30.3544 21.4106 30.4553 21.3512C30.5561 21.2918 30.637 21.2039 30.6879 21.0985C30.7387 20.9931 30.7571 20.875 30.7408 20.7591C30.7245 20.6432 30.6742 20.5348 30.5963 20.4475C30.5184 20.3603 30.4163 20.2981 30.303 20.2688C30.1897 20.2395 30.0703 20.2445 29.9598 20.2832C29.8494 20.3218 29.7529 20.3923 29.6825 20.4858C29.6121 20.5793 29.5711 20.6915 29.5645 20.8084C29.5557 20.9649 29.6094 21.1185 29.7139 21.2355C29.8183 21.3525 29.9649 21.4232 30.1214 21.4321Z" fill="white"/>
<path d="M30.1152 25.1548C30.282 25.1642 30.4479 25.1238 30.5919 25.0389C30.7358 24.954 30.8514 24.8284 30.9239 24.6778C30.9965 24.5272 31.0228 24.3586 30.9995 24.1931C30.9762 24.0276 30.9044 23.8727 30.7931 23.748C30.6818 23.6233 30.536 23.5344 30.3742 23.4926C30.2124 23.4507 30.0418 23.4577 29.884 23.5128C29.7262 23.5679 29.5883 23.6685 29.4877 23.8019C29.387 23.9353 29.3282 24.0956 29.3186 24.2624C29.306 24.4864 29.3828 24.7062 29.5321 24.8735C29.6815 25.0409 29.8912 25.142 30.1152 25.1548Z" fill="white"/>
<path d="M25.5354 33.7833C25.6847 33.708 25.8083 33.5902 25.8906 33.4446C25.9729 33.2991 26.0102 33.1325 25.9978 32.9657C25.9854 32.799 25.9238 32.6397 25.8208 32.508C25.7179 32.3763 25.5781 32.278 25.4193 32.2257C25.2605 32.1734 25.0898 32.1694 24.9287 32.2141C24.7676 32.2588 24.6234 32.3504 24.5143 32.4771C24.4052 32.6038 24.3362 32.76 24.3159 32.9259C24.2956 33.0919 24.325 33.2601 24.4003 33.4094C24.5013 33.6094 24.6776 33.7612 24.8904 33.8314C25.1033 33.9015 25.3353 33.8842 25.5354 33.7833Z" fill="white"/>
<path d="M30.6611 26.3881C30.4858 26.6557 30.4047 26.974 30.4307 27.2928C30.4567 27.6116 30.5883 27.9126 30.8046 28.1482C31.0209 28.3839 31.3096 28.5406 31.625 28.5937C31.9404 28.6467 32.2646 28.5931 32.5461 28.4412C32.8276 28.2894 33.0504 28.048 33.1792 27.7552C33.3081 27.4625 33.3357 27.1351 33.2576 26.8249C33.1794 26.5148 33.0001 26.2395 32.748 26.0427C32.4958 25.8459 32.1852 25.7389 31.8654 25.7385C31.6265 25.7383 31.3913 25.7976 31.1811 25.911C30.9709 26.0244 30.7922 26.1884 30.6611 26.3881Z" fill="white"/>
<path d="M33.1607 32.3999C33.0456 32.1715 32.8715 31.978 32.6566 31.8393C32.4417 31.7006 32.1937 31.6218 31.9381 31.611C31.6825 31.6001 31.4287 31.6577 31.2028 31.7777C30.9769 31.8976 30.7871 32.0757 30.653 32.2936C30.5189 32.5114 30.4453 32.761 30.4399 33.0168C30.4345 33.2725 30.4974 33.525 30.6222 33.7483C30.7469 33.9716 30.929 34.1576 31.1496 34.2871C31.3702 34.4165 31.6214 34.4848 31.8772 34.4848C32.1022 34.4832 32.3238 34.4295 32.5244 34.3277C32.8639 34.1558 33.1215 33.8565 33.2407 33.4952C33.36 33.1339 33.3312 32.7401 33.1607 32.3999Z" fill="white"/>
<path d="M35.6729 32.2994C35.5332 32.2076 35.3694 32.1594 35.2022 32.1608C35.035 32.1621 34.872 32.213 34.7338 32.307C34.5955 32.401 34.4883 32.5339 34.4256 32.6889C34.3628 32.8439 34.3475 33.0139 34.3814 33.1776C34.4154 33.3413 34.4971 33.4913 34.6163 33.6085C34.7354 33.7258 34.8867 33.805 35.0509 33.8363C35.2151 33.8676 35.3849 33.8495 35.5389 33.7842C35.6928 33.719 35.8239 33.6096 35.9157 33.4699C36.0383 33.2823 36.0816 33.0539 36.0361 32.8345C35.9906 32.6151 35.86 32.4227 35.6729 32.2994Z" fill="white"/>
<path d="M38.4255 30.1399C38.4335 29.9982 38.3993 29.8572 38.3272 29.7349C38.2551 29.6126 38.1484 29.5144 38.0205 29.4527C37.8926 29.3911 37.7493 29.3687 37.6088 29.3884C37.4682 29.4082 37.3366 29.4692 37.2306 29.5637C37.1247 29.6582 37.0492 29.782 37.0136 29.9195C36.978 30.0569 36.9839 30.2018 37.0307 30.3359C37.0774 30.4699 37.1629 30.5871 37.2762 30.6726C37.3896 30.7581 37.5257 30.8081 37.6674 30.8163C37.8576 30.827 38.0443 30.7618 38.1864 30.635C38.3286 30.5081 38.4146 30.3301 38.4255 30.1399Z" fill="white"/>
<path d="M40.4145 29.6285C40.3227 29.6232 40.2314 29.6453 40.1521 29.6919C40.0728 29.7385 40.0091 29.8076 39.9691 29.8904C39.9291 29.9733 39.9145 30.0661 39.9272 30.1572C39.94 30.2483 39.9794 30.3335 40.0406 30.4022C40.1018 30.4709 40.182 30.5198 40.271 30.5429C40.3601 30.566 40.4539 30.5622 40.5408 30.5319C40.6276 30.5017 40.7036 30.4463 40.759 30.3729C40.8144 30.2995 40.8468 30.2113 40.8521 30.1195C40.8589 29.9964 40.8167 29.8756 40.7347 29.7836C40.6527 29.6916 40.5376 29.6358 40.4145 29.6285Z" fill="white"/>
<path d="M38.5418 34.2397C38.4439 34.1756 38.3293 34.142 38.2123 34.143C38.0953 34.1441 37.9813 34.1798 37.8846 34.2457C37.788 34.3115 37.713 34.4046 37.6692 34.513C37.6254 34.6215 37.6147 34.7405 37.6385 34.855C37.6624 34.9695 37.7196 35.0744 37.803 35.1564C37.8865 35.2384 37.9923 35.2938 38.1072 35.3156C38.2222 35.3375 38.341 35.3248 38.4487 35.2791C38.5563 35.2334 38.6481 35.1568 38.7122 35.059C38.7549 34.994 38.7843 34.9213 38.7988 34.8449C38.8133 34.7686 38.8126 34.6901 38.7968 34.614C38.7809 34.5379 38.7503 34.4657 38.7065 34.4015C38.6628 34.3373 38.6068 34.2823 38.5418 34.2397Z" fill="white"/>
<path d="M25.3445 38.5814C25.2676 38.531 25.1775 38.5045 25.0855 38.5052C24.9936 38.506 24.9039 38.534 24.8279 38.5857C24.7518 38.6374 24.6928 38.7105 24.6583 38.7958C24.6238 38.881 24.6154 38.9746 24.634 39.0646C24.6527 39.1547 24.6976 39.2372 24.7632 39.3017C24.8287 39.3662 24.9119 39.4098 25.0023 39.4271C25.0926 39.4443 25.186 39.4343 25.2707 39.3985C25.3554 39.3626 25.4276 39.3024 25.4781 39.2256C25.5116 39.1745 25.5348 39.1174 25.5462 39.0573C25.5576 38.9973 25.5571 38.9357 25.5447 38.8758C25.5323 38.816 25.5083 38.7592 25.4739 38.7087C25.4396 38.6582 25.3956 38.6149 25.3445 38.5814Z" fill="white"/>
<path d="M35.0916 38.5327C35.0095 38.5741 34.9415 38.639 34.8962 38.719C34.8509 38.7991 34.8303 38.8908 34.8372 38.9825C34.844 39.0742 34.8779 39.1619 34.9345 39.2344C34.9912 39.3068 35.068 39.3609 35.1554 39.3897C35.2427 39.4185 35.3367 39.4207 35.4253 39.3961C35.5139 39.3715 35.5933 39.3212 35.6533 39.2515C35.7133 39.1818 35.7514 39.0958 35.7625 39.0045C35.7737 38.9132 35.7576 38.8207 35.7161 38.7385C35.6887 38.684 35.6508 38.6353 35.6045 38.5954C35.5583 38.5555 35.5046 38.5251 35.4466 38.506C35.3886 38.4869 35.3274 38.4794 35.2664 38.484C35.2055 38.4886 35.1461 38.5051 35.0916 38.5327Z" fill="white"/>
<path d="M29.6902 33.8399C29.8655 33.5723 29.9466 33.2539 29.9206 32.9351C29.8946 32.6162 29.763 32.3152 29.5466 32.0796C29.3302 31.844 29.0415 31.6873 28.726 31.6343C28.4105 31.5813 28.0864 31.635 27.8049 31.7869C27.5234 31.9389 27.3006 32.1804 27.1719 32.4732C27.0431 32.766 27.0156 33.0934 27.0939 33.4036C27.1721 33.7138 27.3516 33.989 27.6039 34.1857C27.8562 34.3823 28.1668 34.4893 28.4867 34.4895C28.7256 34.4903 28.9609 34.4313 29.1711 34.3178C29.3813 34.2043 29.5598 34.04 29.6902 33.8399Z" fill="white"/>
<path d="M26.8174 36.0465C26.6986 35.9687 26.5594 35.928 26.4175 35.9293C26.2755 35.9307 26.1371 35.9741 26.0198 36.0541C25.9025 36.1341 25.8116 36.2471 25.7585 36.3788C25.7054 36.5104 25.6925 36.6549 25.7215 36.7939C25.7505 36.9329 25.82 37.0601 25.9213 37.1596C26.0226 37.2591 26.1511 37.3263 26.2906 37.3527C26.4301 37.3792 26.5743 37.3637 26.705 37.3082C26.8357 37.2527 26.947 37.1597 27.0248 37.041C27.1291 36.8816 27.1658 36.6873 27.1269 36.5008C27.088 36.3143 26.9767 36.1509 26.8174 36.0465Z" fill="white"/>
<path d="M30.1694 38.7982C30.0526 38.7916 29.9364 38.8197 29.8356 38.8791C29.7348 38.9384 29.6539 39.0263 29.6031 39.1317C29.5522 39.237 29.5337 39.3551 29.55 39.4709C29.5662 39.5868 29.6165 39.6952 29.6943 39.7825C29.7722 39.8698 29.8742 39.9321 29.9874 39.9614C30.1006 39.9908 30.22 39.9859 30.3305 39.9474C30.4409 39.9089 30.5375 39.8385 30.608 39.7451C30.6784 39.6517 30.7196 39.5395 30.7263 39.4228C30.7308 39.3452 30.7199 39.2675 30.6943 39.1941C30.6687 39.1207 30.629 39.0531 30.5772 38.9951C30.5255 38.9371 30.4629 38.8899 30.3929 38.8561C30.3229 38.8223 30.2469 38.8027 30.1694 38.7982Z" fill="white"/>
<path d="M30.1757 35.0763C30.0086 35.0662 29.8424 35.1058 29.6979 35.1902C29.5535 35.2746 29.4373 35.4 29.3642 35.5505C29.291 35.701 29.2642 35.8698 29.2871 36.0356C29.3099 36.2013 29.3815 36.3565 29.4927 36.4816C29.6038 36.6066 29.7496 36.6959 29.9115 36.738C30.0735 36.7802 30.2442 36.7733 30.4023 36.7183C30.5603 36.6633 30.6984 36.5626 30.7992 36.429C30.8999 36.2954 30.9588 36.135 30.9683 35.9679C30.9812 35.7446 30.9049 35.5253 30.7563 35.3582C30.6077 35.191 30.3989 35.0897 30.1757 35.0763Z" fill="white"/>
<path d="M33.6329 35.9891C33.506 36.0535 33.4011 36.154 33.3315 36.278C33.2618 36.402 33.2305 36.5439 33.2415 36.6857C33.2525 36.8275 33.3053 36.9629 33.3933 37.0746C33.4812 37.1864 33.6004 37.2696 33.7356 37.3136C33.8709 37.3576 34.0162 37.3605 34.1531 37.3219C34.29 37.2834 34.4123 37.205 34.5047 37.0969C34.5971 36.9887 34.6553 36.8556 34.6719 36.7143C34.6886 36.573 34.663 36.43 34.5983 36.3033C34.5556 36.2192 34.4968 36.1444 34.4251 36.0831C34.3535 36.0218 34.2704 35.9752 34.1807 35.946C34.0911 35.9168 33.9965 35.9056 33.9025 35.913C33.8085 35.9204 33.7169 35.9463 33.6329 35.9891Z" fill="white"/>
</svg>
