<svg width="60" height="60" viewBox="0 0 60 60" fill="none" xmlns="http://www.w3.org/2000/svg">
<rect width="60" height="60" rx="30" fill="#DFE1E7"/>
<rect x="15" y="15" width="30" height="30" rx="15" fill="white"/>
<path d="M23.1074 31.0397C25.6437 32.3867 28.2903 33.7966 30.3344 34.8875L37.5023 31.0397C34.9069 34.8954 32.7444 38.1052 30.3344 41.6577C27.9201 38.1131 25.2539 34.2018 23.1074 31.0397ZM23.3831 29.9762L30.3423 26.2627L37.2108 29.949L30.3462 33.6666L23.3831 29.9762ZM30.3344 25.073L23.1074 28.8775L30.3029 18.3423L37.5023 28.9011L30.3344 25.073Z" fill="#3AB83A"/>
<path d="M30.3343 34.8875L37.5022 31.0397C34.9068 34.8954 30.3343 41.6577 30.3343 41.6577V34.8875ZM30.3421 26.2627L37.2108 29.949L30.346 33.6666L30.3421 26.2627ZM30.3343 25.0733L30.3027 18.3423L37.5022 28.9011L30.3343 25.0733Z" fill="#0B8311"/>
<path d="M23.3828 29.9762L30.3424 30.5474L37.2109 29.9526L30.3459 33.6705L23.3828 29.9762Z" fill="#0B8311"/>
<path d="M30.3438 30.5474L37.2124 29.9526L30.3477 33.6705L30.3438 30.5474Z" fill="#146714"/>
</svg>
