<svg width="44" height="45" viewBox="0 0 44 45" fill="none" xmlns="http://www.w3.org/2000/svg">
<rect y="0.5" width="44" height="44" rx="22" fill="#429EFF"/>
<g clip-path="url(#clip0_20166_62903)">
<path d="M24 12.5C25.8299 12.4991 27.6049 13.1257 29.0288 14.2751C30.4527 15.4246 31.4395 17.0275 31.8246 18.8165C32.2097 20.6055 31.9699 22.4724 31.145 24.1059C30.3202 25.7395 28.9602 27.0408 27.292 27.793C26.7587 28.9719 25.9475 30.0039 24.9278 30.8004C23.9082 31.597 22.7105 32.1343 21.4376 32.3663C20.1647 32.5984 18.8545 32.5182 17.6193 32.1327C16.3842 31.7472 15.261 31.0678 14.3461 30.1529C13.4312 29.238 12.7518 28.1148 12.3663 26.8796C11.9808 25.6445 11.9006 24.3343 12.1326 23.0614C12.3647 21.7884 12.902 20.5908 13.6985 19.5711C14.4951 18.5515 15.5271 17.7402 16.706 17.207C17.3401 15.8039 18.3656 14.6135 19.6593 13.7786C20.9531 12.9437 22.4602 12.4998 24 12.5ZM20 18.5C19.212 18.5 18.4318 18.6552 17.7039 18.9567C16.9759 19.2583 16.3145 19.7002 15.7573 20.2574C15.2002 20.8145 14.7582 21.4759 14.4567 22.2039C14.1552 22.9319 14 23.7121 14 24.5C14 25.2879 14.1552 26.0681 14.4567 26.7961C14.7582 27.5241 15.2002 28.1855 15.7573 28.7426C16.3145 29.2998 16.9759 29.7417 17.7039 30.0433C18.4318 30.3448 19.212 30.5 20 30.5C21.5913 30.5 23.1174 29.8679 24.2426 28.7426C25.3678 27.6174 26 26.0913 26 24.5C26 22.9087 25.3678 21.3826 24.2426 20.2574C23.1174 19.1321 21.5913 18.5 20 18.5ZM21 19.5V20.5H23V22.5H19C18.875 22.4998 18.7545 22.5463 18.6622 22.6305C18.5698 22.7147 18.5124 22.8304 18.5011 22.9548C18.4898 23.0793 18.5255 23.2034 18.6012 23.3028C18.6769 23.4023 18.787 23.4697 18.91 23.492L19 23.5H21C21.663 23.5 22.2989 23.7634 22.7677 24.2322C23.2366 24.7011 23.5 25.337 23.5 26C23.5 26.663 23.2366 27.2989 22.7677 27.7678C22.2989 28.2366 21.663 28.5 21 28.5V29.5H19V28.5H17V26.5H21C21.1249 26.5002 21.2454 26.4537 21.3377 26.3695C21.4301 26.2853 21.4875 26.1696 21.4988 26.0452C21.5101 25.9207 21.4744 25.7966 21.3987 25.6972C21.3231 25.5977 21.2129 25.5303 21.09 25.508L21 25.5H19C18.3369 25.5 17.701 25.2366 17.2322 24.7678C16.7634 24.2989 16.5 23.663 16.5 23C16.5 22.337 16.7634 21.7011 17.2322 21.2322C17.701 20.7634 18.3369 20.5 19 20.5V19.5H21ZM24 14.5C23.1526 14.499 22.3148 14.6779 21.5418 15.025C20.7688 15.372 20.0783 15.8792 19.516 16.513C20.6462 16.4444 21.7782 16.6165 22.837 17.0179C23.8958 17.4194 24.8573 18.041 25.6579 18.8418C26.4586 19.6425 27.0801 20.6041 27.4814 21.6629C27.8827 22.7218 28.0547 23.8537 27.986 24.984C28.8952 24.1756 29.5372 23.1099 29.8268 21.9283C30.1164 20.7467 30.04 19.5049 29.6076 18.3677C29.1752 17.2305 28.4074 16.2516 27.4059 15.5609C26.4044 14.8701 25.2166 14.5001 24 14.5Z" fill="white"/>
</g>
<defs>
<clipPath id="clip0_20166_62903">
<rect width="24" height="24" fill="white" transform="translate(10 10.5)"/>
</clipPath>
</defs>
</svg>
