<svg width="24" height="24" viewBox="0 0 24 24" fill="none" xmlns="http://www.w3.org/2000/svg">
<path fill-rule="evenodd" clip-rule="evenodd" d="M2 5C2 4.44772 2.44772 4 3 4H14C14.5523 4 15 4.44772 15 5C15 5.55228 14.5523 6 14 6H3C2.44772 6 2 5.55228 2 5ZM17.2929 8.29289C17.6834 7.90237 18.3166 7.90237 18.7071 8.29289L21.7071 11.2929C22.0976 11.6834 22.0976 12.3166 21.7071 12.7071L18.7071 15.7071C18.3166 16.0976 17.6834 16.0976 17.2929 15.7071C16.9024 15.3166 16.9024 14.6834 17.2929 14.2929L18.5858 13H3C2.44772 13 2 12.5523 2 12C2 11.4477 2.44772 11 3 11H18.5858L17.2929 9.70711C16.9024 9.31658 16.9024 8.68342 17.2929 8.29289ZM2 19C2 18.4477 2.44772 18 3 18H14C14.5523 18 15 18.4477 15 19C15 19.5523 14.5523 20 14 20H3C2.44772 20 2 19.5523 2 19Z" fill="black"/>
</svg>
