<svg width="20" height="20" viewBox="0 0 20 20" fill="none" xmlns="http://www.w3.org/2000/svg">
<rect width="20" height="20" rx="10" fill="#F5B300"/>
<path d="M6.4864 4.59794C6.85365 4.6981 7.22089 4.76487 7.58813 4.86502C7.95537 4.96518 8.32261 5.03195 8.68985 5.13211C8.79 5.16549 8.82339 5.13211 8.85678 5.03195C8.99032 4.4644 9.12386 3.93023 9.2574 3.36268C9.29079 3.26252 9.32417 3.22913 9.42433 3.26252C9.75818 3.36268 10.0587 3.42945 10.3925 3.49622C10.4927 3.5296 10.4927 3.56299 10.4593 3.62976C10.3257 4.16393 10.1922 4.73148 10.0587 5.26565C10.0587 5.29903 10.0587 5.33242 10.0253 5.39919C10.2924 5.46596 10.5928 5.53273 10.8599 5.5995C10.8933 5.5995 10.9267 5.53273 10.9601 5.49935C11.0602 5.06534 11.1604 4.66471 11.2939 4.2307C11.3273 4.09716 11.3607 3.96361 11.3941 3.83007C11.3941 3.7633 11.4275 3.72992 11.4942 3.7633C11.8281 3.86346 12.1619 3.93023 12.5292 4.03039C12.5626 4.03039 12.5626 4.06377 12.596 4.06377C12.4958 4.49778 12.3956 4.89841 12.2955 5.29903C12.2621 5.46596 12.2287 5.63289 12.1619 5.79982C12.1286 5.89997 12.1619 5.93336 12.2621 5.96674C12.6293 6.13367 12.9966 6.3006 13.3638 6.46753C13.6977 6.66784 13.9981 6.93492 14.2318 7.26878C14.5323 7.76956 14.5657 8.30373 14.4322 8.8379C14.332 9.20514 14.1985 9.53899 13.9314 9.80608C13.7311 10.0064 13.464 10.1399 13.1969 10.2401C13.1635 10.2401 13.1301 10.2735 13.0633 10.2735C13.1969 10.3736 13.3304 10.4404 13.464 10.5406C13.8646 10.841 14.1317 11.2083 14.2652 11.6757C14.332 12.0429 14.2986 12.4435 14.1985 12.8108C14.0649 13.2782 13.898 13.6788 13.5975 14.046C13.2303 14.48 12.7629 14.7137 12.2287 14.7805C11.5276 14.8807 10.8599 14.8139 10.1922 14.7137C10.092 14.6804 10.0253 14.7137 9.99188 14.8139C9.85834 15.3481 9.7248 15.9156 9.59126 16.4498C9.55787 16.5833 9.55787 16.6167 9.39094 16.5499C9.09047 16.4832 8.75662 16.383 8.45615 16.3162C8.35599 16.2829 8.35599 16.2495 8.38938 16.1827C8.52292 15.6152 8.65646 15.0476 8.82339 14.5134C8.82339 14.4467 8.85677 14.4133 8.79 14.3799C8.52292 14.3131 8.25584 14.2463 7.95537 14.1796C7.8886 14.48 7.78844 14.7805 7.72167 15.081C7.6549 15.3815 7.55474 15.6819 7.48797 15.9824C7.45458 16.0492 7.45458 16.0825 7.35443 16.0492C7.02057 15.949 6.68672 15.8822 6.35286 15.8155C6.25271 15.7821 6.25271 15.7487 6.28609 15.6819C6.41963 15.1144 6.55318 14.5468 6.7201 14.0126C6.7201 13.9793 6.75349 13.9459 6.75349 13.8791C5.98562 13.6788 5.21776 13.4785 4.4165 13.2782C4.48327 13.1446 4.51666 13.0445 4.58343 12.9109C4.71697 12.6105 4.85052 12.31 4.95067 12.0429C4.98406 11.9427 5.01744 11.9427 5.1176 11.9427C5.3513 12.0095 5.61838 12.0763 5.85208 12.1097C6.11916 12.1764 6.31948 12.0429 6.35286 11.8092C6.78687 10.1065 7.22089 8.40389 7.62151 6.66784C7.68828 6.40076 7.52135 6.10029 7.22089 6.00013C6.92042 5.89997 6.61995 5.8332 6.35286 5.76643C6.28609 5.76643 6.25271 5.73305 6.28609 5.66628C6.38625 5.29903 6.4864 4.89841 6.58656 4.53117C6.45302 4.63132 6.45302 4.63132 6.4864 4.59794ZM8.18907 12.8442C8.22245 12.8442 8.25584 12.8775 8.25584 12.8775C8.79 13.0111 9.35756 13.178 9.92511 13.2114C10.3257 13.2448 10.693 13.2448 11.0602 13.1112C11.6945 12.9109 11.9616 12.0763 11.5944 11.5421C11.4275 11.275 11.1604 11.1081 10.8933 10.9412C10.2924 10.6073 9.59126 10.4738 8.92355 10.3402C8.82339 10.3069 8.82339 10.3402 8.79 10.4404C8.72323 10.7743 8.62308 11.0747 8.55631 11.4086C8.42276 11.876 8.32261 12.3434 8.18907 12.8442ZM10.9934 9.43884C11.0602 9.43884 11.2271 9.40545 11.3607 9.37207C11.995 9.23852 12.3289 8.50404 11.995 7.93649C11.8281 7.63602 11.5276 7.43571 11.2271 7.30216C10.7597 7.10185 10.2924 7.0017 9.79157 6.86815C9.69141 6.83477 9.65803 6.86815 9.62464 6.96831C9.45771 7.6694 9.29079 8.33712 9.09047 9.03821C9.05709 9.10498 9.09047 9.13837 9.15724 9.17175C9.29079 9.20514 9.39094 9.23852 9.52449 9.27191C10.0253 9.33868 10.4593 9.43884 10.9934 9.43884Z" fill="white"/>
</svg>
