<svg width="20" height="20" viewBox="0 0 20 20" fill="none" xmlns="http://www.w3.org/2000/svg">
<rect width="20" height="20" rx="10" fill="#1A1A1A"/>
<path d="M5.5001 12.6338C5.58169 12.5558 5.6923 12.512 5.80763 12.512H16.4486C16.6425 12.512 16.7395 12.7363 16.6024 12.8674L14.4997 14.8781C14.4182 14.9562 14.3075 15 14.1922 15H3.55122C3.35739 15 3.26034 14.7757 3.39745 14.6445L5.5001 12.6338Z" fill="url(#paint0_linear_20166_62832)"/>
<path d="M5.5001 5.12185C5.58168 5.04383 5.6923 5 5.80763 5H16.4486C16.6425 5 16.7395 5.22434 16.6024 5.35548L14.4997 7.36621C14.4182 7.44422 14.3075 7.48804 14.1922 7.48804H3.55122C3.35739 7.48804 3.26034 7.2637 3.39745 7.13258L5.5001 5.12185Z" fill="url(#paint1_linear_20166_62832)"/>
<path d="M14.4997 8.85389C14.4182 8.77588 14.3075 8.73207 14.1922 8.73207H3.55122C3.35739 8.73207 3.26034 8.9564 3.39745 9.08752L5.5001 11.0982C5.58168 11.1763 5.6923 11.2201 5.80763 11.2201H16.4486C16.6425 11.2201 16.7395 10.9958 16.6024 10.8646L14.4997 8.85389Z" fill="url(#paint2_linear_20166_62832)"/>
<defs>
<linearGradient id="paint0_linear_20166_62832" x1="12.3474" y1="2.25696" x2="5.47825" y2="16.0045" gradientUnits="userSpaceOnUse">
<stop stop-color="#00FFA3"/>
<stop offset="1" stop-color="#DC1FFF"/>
</linearGradient>
<linearGradient id="paint1_linear_20166_62832" x1="12.3474" y1="2.25696" x2="5.47825" y2="16.0045" gradientUnits="userSpaceOnUse">
<stop stop-color="#00FFA3"/>
<stop offset="1" stop-color="#DC1FFF"/>
</linearGradient>
<linearGradient id="paint2_linear_20166_62832" x1="12.3474" y1="2.25696" x2="5.47825" y2="16.0045" gradientUnits="userSpaceOnUse">
<stop stop-color="#00FFA3"/>
<stop offset="1" stop-color="#DC1FFF"/>
</linearGradient>
</defs>
</svg>
