<svg width="20" height="21" viewBox="0 0 20 21" fill="none" xmlns="http://www.w3.org/2000/svg">
<rect y="0.666992" width="20" height="20" rx="10" fill="white"/>
<path d="M5.40332 11.36C7.0942 12.2579 8.85859 13.1979 10.2213 13.9252L14.9999 11.36C13.2697 13.9304 11.828 16.0703 10.2213 18.4386C8.6118 16.0755 6.83429 13.4681 5.40332 11.36ZM5.5871 10.651L10.2266 8.17531L14.8056 10.6329L10.2292 13.1112L5.5871 10.651ZM10.2213 7.38215L5.40332 9.9185L10.2003 2.89502L14.9999 9.93423L10.2213 7.38215Z" fill="#3AB83A"/>
<path d="M10.2212 13.9252L14.9999 11.36C13.2696 13.9304 10.2212 18.4386 10.2212 18.4386V13.9252ZM10.2264 8.17531L14.8056 10.6329L10.2291 13.1112L10.2264 8.17531ZM10.2212 7.38234L10.2002 2.89502L14.9999 9.93423L10.2212 7.38234Z" fill="#0B8311"/>
<path d="M5.5874 10.651L10.2271 11.0317L14.8062 10.6353L10.2295 13.1138L5.5874 10.651Z" fill="#0B8311"/>
<path d="M10.2268 11.0317L14.8059 10.6353L10.2294 13.1138L10.2268 11.0317Z" fill="#146714"/>
</svg>
